<svg height="500" viewBox="0 0 500 500" width="500" xmlns="http://www.w3.org/2000/svg" xmlns:xlink="http://www.w3.org/1999/xlink"><mask id="a" fill="#fff"><path d="m44.0416131 342.222285v-133.23928h-34.70835601c-5.15461597 0-9.33325784-4.178642-9.33325784-9.333258 0-2.452512.96532312-4.806473 2.68722613-6.552859l186.96303562-189.62138737c4.523805-4.58812745 11.910486-4.64027086 16.498614-.11646556.032419.03196435.06465.06411818.096693.09645985l97.612592 98.52424008v-18.2230796c0-4.2955133 3.482201-7.7777149 7.777714-7.7777149h32.410702c4.295514 0 7.777715 3.4822016 7.777715 7.7777149v66.9245646l41.514572 42.442237c3.604371 3.684912 3.539079 9.594043-.145833 13.198414-1.744026 1.705906-4.086671 2.661134-6.526291 2.661134h-34.842448v133.23928c0 4.295513-3.482201 7.777715-7.777715 7.777715h-292.2272481c-4.2955133 0-7.7777148-3.482202-7.7777148-7.777715zm109.7543759-124.617523c2.0365-4.799473 3.16307-10.079063 3.16307-15.621971 0-22.092065-17.895974-40.001222-39.971776-40.001222-22.0758029 0-39.9717768 17.909157-39.9717768 40.001222s17.8959739 40.001223 39.9717768 40.001223c5.538827 0 10.81453-1.1274 15.61047-3.165401l50.342961 50.380047v60.788654h29.978832v-60.788654l50.34296-50.380047c4.79594 2.038001 10.071643 3.165401 15.610471 3.165401 22.075802 0 39.971776-17.909158 39.971776-40.001223s-17.895974-40.001222-39.971776-40.001222c-22.075803 0-39.971776 17.909157-39.971776 40.001222 0 5.542908 1.126569 10.822498 3.16307 15.621971l-29.144725 29.166194v-88.697092c14.648808-5.934055 24.98236-20.306147 24.98236-37.093548 0-22.0920654-17.895974-40.0012227-39.971776-40.0012227-22.075803 0-39.971777 17.9091573-39.971777 40.0012227 0 16.787401 10.333552 31.159493 24.982361 37.093548v88.697092zm44.134141-80.623957c-8.830321 0-15.988711-7.163663-15.988711-16.000489s7.15839-16.000489 15.988711-16.000489 15.98871 7.163663 15.98871 16.000489-7.158389 16.000489-15.98871 16.000489zm80.942847 81.002475c-8.830321 0-15.988711-7.163663-15.988711-16.000489s7.15839-16.000489 15.988711-16.000489 15.98871 7.163663 15.98871 16.000489-7.158389 16.000489-15.98871 16.000489zm-161.885694 0c-8.830321 0-15.988711-7.163663-15.988711-16.000489s7.15839-16.000489 15.988711-16.000489 15.98871 7.163663 15.98871 16.000489-7.158389 16.000489-15.98871 16.000489z" fill="#fff" fill-rule="evenodd"/></mask><g fill="none" fill-rule="evenodd"><path d="m0 0h500v500h-500z" fill="#41bdf5"/><g fill="#fff" fill-rule="evenodd" mask="url(#a)" transform="translate(52 70)"><path d="m0 0h396v350h-396z"/></g></g></svg>