<svg height="128" viewBox="0 0 439.27 500" xmlns="http://www.w3.org/2000/svg" xmlns:xlink="http://www.w3.org/1999/xlink"><linearGradient id="a" gradientUnits="userSpaceOnUse" x1="299.32" x2="122.26" y1="87.4" y2="448.59"><stop offset="0" stop-color="#3f873f"/><stop offset=".33" stop-color="#3e8a3d"/><stop offset=".64" stop-color="#3e9537"/><stop offset=".93" stop-color="#3da82d"/><stop offset="1" stop-color="#3dae2b"/></linearGradient><clipPath id="b"><path clip-rule="evenodd" d="m231.49 3.17c-7.32-4.23-16.34-4.23-23.66 0l-195.99 113.1c-7.33 4.22-11.84 12.04-11.84 20.5v226.37c0 8.46 4.51 16.27 11.83 20.5l195.98 113.19c7.33 4.23 16.35 4.23 23.68 0l195.94-113.19c7.32-4.23 11.83-12.05 11.83-20.5v-226.38c0-8.46-4.51-16.27-11.84-20.49z"/></clipPath><linearGradient id="c" gradientUnits="userSpaceOnUse" x1="189.8" x2="686.61" y1="276.43" y2="-90.64"><stop offset=".14" stop-color="#3f873f"/><stop offset=".4" stop-color="#519f44"/><stop offset=".71" stop-color="#63b649"/><stop offset=".91" stop-color="#6abf4b"/></linearGradient><linearGradient id="d" gradientUnits="userSpaceOnUse" x1="-6.93" x2="446.2" y1="249.9" y2="249.9"><stop offset=".09" stop-color="#6abf4b"/><stop offset=".29" stop-color="#63b649"/><stop offset=".6" stop-color="#519f44"/><stop offset=".86" stop-color="#3f873f"/></linearGradient><linearGradient id="e" x1="-6.93" x2="446.2" xlink:href="#d" y1="437.73" y2="437.73"/><linearGradient id="f" x1="512.22" x2="232.75" xlink:href="#a" y1="76.69" y2="646.79"/><path d="m231.49 3.17c-7.32-4.23-16.34-4.23-23.66 0l-195.99 113.1c-7.33 4.22-11.84 12.04-11.84 20.5v226.37c0 8.46 4.51 16.27 11.83 20.5l195.98 113.19c7.33 4.23 16.35 4.23 23.68 0l195.94-113.19c7.32-4.23 11.83-12.05 11.83-20.5v-226.38c0-8.46-4.51-16.27-11.84-20.49z" fill="url(#a)" fill-rule="evenodd"/><g clip-path="url(#b)"><path d="m207.41 3.17-196.39 113.1c-7.33 4.23-12.66 12.04-12.66 20.5v226.37c0 5.59 2.39 10.88 6.11 15.06l220.66-377.48c-5.93-1.46-12.34-.66-17.72 2.45z" fill="none"/><path d="m226.22 499.12c1.91-.53 3.77-1.28 5.52-2.29l196.18-113.19c7.32-4.23 12.32-12.05 12.32-20.5v-226.38c0-6.22-2.78-12.09-7.16-16.44z" fill="none"/><path d="m427.82 116.27-196.54-113.1c-1.94-1.12-4.02-1.92-6.15-2.45l-220.66 377.48c1.9 2.14 4.13 4.01 6.61 5.44l196.87 113.19c5.58 3.22 12.2 3.97 18.28 2.29l206.86-378.8c-1.57-1.56-3.34-2.94-5.27-4.06z" fill="url(#c)"/><path d="m440.25 363.14v-226.38c0-8.46-5.11-16.27-12.43-20.49l-196.54-113.1c-2.26-1.3-4.7-2.16-7.21-2.66l215.44 368.06c.45-1.76.73-3.58.73-5.44z" fill="none"/><path d="m11.02 116.27c-7.33 4.23-12.66 12.04-12.66 20.5v226.37c0 8.46 5.39 16.27 12.71 20.5l196.87 113.19c4.63 2.67 9.98 3.65 15.15 2.94l-210.89-384.18z" fill="none"/><path d="m427.93 383.64c5.71-3.3 9.97-8.8 11.59-15.06l-215.45-368.07c-5.63-1.12-11.59-.27-16.66 2.66l-195.21 112.42 210.89 384.18c3.01-.41 5.96-1.38 8.66-2.94z" fill="url(#d)"/><path d="m427.93 383.64-196.18 113.19c-2.7 1.56-5.64 2.53-8.66 2.94l3.91 7.12 217.91-126.14v-2.97l-5.39-9.2c-1.61 6.27-5.88 11.76-11.59 15.06z" fill="url(#e)"/><path d="m427.93 383.64-196.18 113.19c-2.7 1.56-5.64 2.53-8.66 2.94l3.91 7.12 217.91-126.14v-2.97l-5.39-9.2c-1.61 6.27-5.88 11.76-11.59 15.06z" fill="url(#f)"/></g></svg>
