<?xml version="1.0" encoding="UTF-8"?><svg id="Layer_2" xmlns="http://www.w3.org/2000/svg" xmlns:xlink="http://www.w3.org/1999/xlink" viewBox="0 0 439.27 500"><defs><style>.cls-1{fill:none;}.cls-2{clip-path:url(#clippath);}.cls-3{fill-rule:evenodd;}.cls-3,.cls-4{fill:url(#linear-gradient);}.cls-4{clip-rule:evenodd;}.cls-5{fill:url(#linear-gradient-3);}.cls-6{fill:url(#linear-gradient-4);}.cls-7{fill:url(#linear-gradient-2);}.cls-8{fill:url(#linear-gradient-5);}</style><linearGradient id="linear-gradient" x1="299.32" y1="87.4" x2="122.26" y2="448.59" gradientTransform="matrix(1, 0, 0, 1, 0, 0)" gradientUnits="userSpaceOnUse"><stop offset="0" stop-color="#3f873f"/><stop offset=".33" stop-color="#3e8a3d"/><stop offset=".64" stop-color="#3e9537"/><stop offset=".93" stop-color="#3da82d"/><stop offset="1" stop-color="#3dae2b"/></linearGradient><clipPath id="clippath"><path class="cls-4" d="M231.49,3.17c-7.32-4.23-16.34-4.23-23.66,0L11.84,116.27C4.51,120.49,0,128.31,0,136.77v226.37c0,8.46,4.51,16.27,11.83,20.5l195.98,113.19c7.33,4.23,16.35,4.23,23.68,0l195.94-113.19c7.32-4.23,11.83-12.05,11.83-20.5V136.76c0-8.46-4.51-16.27-11.84-20.49L231.49,3.17Z"/></clipPath><linearGradient id="linear-gradient-2" x1="189.8" y1="276.43" x2="686.61" y2="-90.64" gradientTransform="matrix(1, 0, 0, 1, 0, 0)" gradientUnits="userSpaceOnUse"><stop offset=".14" stop-color="#3f873f"/><stop offset=".4" stop-color="#519f44"/><stop offset=".71" stop-color="#63b649"/><stop offset=".91" stop-color="#6abf4b"/></linearGradient><linearGradient id="linear-gradient-3" x1="-6.93" y1="249.9" x2="446.2" y2="249.9" gradientTransform="matrix(1, 0, 0, 1, 0, 0)" gradientUnits="userSpaceOnUse"><stop offset=".09" stop-color="#6abf4b"/><stop offset=".29" stop-color="#63b649"/><stop offset=".6" stop-color="#519f44"/><stop offset=".86" stop-color="#3f873f"/></linearGradient><linearGradient id="linear-gradient-4" x1="-6.93" y1="437.73" x2="446.2" y2="437.73" xlink:href="#linear-gradient-3"/><linearGradient id="linear-gradient-5" x1="512.22" y1="76.69" x2="232.75" y2="646.79" xlink:href="#linear-gradient"/></defs><g id="Layer_1-2"><g><path class="cls-3" d="M231.49,3.17c-7.32-4.23-16.34-4.23-23.66,0L11.84,116.27C4.51,120.49,0,128.31,0,136.77v226.37c0,8.46,4.51,16.27,11.83,20.5l195.98,113.19c7.33,4.23,16.35,4.23,23.68,0l195.94-113.19c7.32-4.23,11.83-12.05,11.83-20.5V136.76c0-8.46-4.51-16.27-11.84-20.49L231.49,3.17Z"/><g class="cls-2"><path class="cls-1" d="M207.41,3.17L11.02,116.27c-7.33,4.23-12.66,12.04-12.66,20.5v226.37c0,5.59,2.39,10.88,6.11,15.06L225.13,.72c-5.93-1.46-12.34-.66-17.72,2.45Z"/><path class="cls-1" d="M226.22,499.12c1.91-.53,3.77-1.28,5.52-2.29l196.18-113.19c7.32-4.23,12.32-12.05,12.32-20.5V136.76c0-6.22-2.78-12.09-7.16-16.44L226.22,499.12Z"/><path class="cls-7" d="M427.82,116.27L231.28,3.17c-1.94-1.12-4.02-1.92-6.15-2.45L4.47,378.2c1.9,2.14,4.13,4.01,6.61,5.44l196.87,113.19c5.58,3.22,12.2,3.97,18.28,2.29L433.09,120.32c-1.57-1.56-3.34-2.94-5.27-4.06Z"/><path class="cls-1" d="M440.25,363.14V136.76c0-8.46-5.11-16.27-12.43-20.49L231.28,3.17c-2.26-1.3-4.7-2.16-7.21-2.66l215.44,368.06c.45-1.76,.73-3.58,.73-5.44Z"/><path class="cls-1" d="M11.02,116.27c-7.33,4.23-12.66,12.04-12.66,20.5v226.37c0,8.46,5.39,16.27,12.71,20.5l196.87,113.19c4.63,2.67,9.98,3.65,15.15,2.94L12.2,115.59l-1.18,.68Z"/><path class="cls-5" d="M427.93,383.64c5.71-3.3,9.97-8.8,11.59-15.06L224.07,.51c-5.63-1.12-11.59-.27-16.66,2.66L12.2,115.59,223.09,499.77c3.01-.41,5.96-1.38,8.66-2.94l196.18-113.19Z"/><path class="cls-6" d="M427.93,383.64l-196.18,113.19c-2.7,1.56-5.64,2.53-8.66,2.94l3.91,7.12,217.91-126.14v-2.97l-5.39-9.2c-1.61,6.27-5.88,11.76-11.59,15.06Z"/><path class="cls-8" d="M427.93,383.64l-196.18,113.19c-2.7,1.56-5.64,2.53-8.66,2.94l3.91,7.12,217.91-126.14v-2.97l-5.39-9.2c-1.61,6.27-5.88,11.76-11.59,15.06Z"/></g></g></g></svg>