<svg height="128" viewBox="0 0 512 470.647" xmlns="http://www.w3.org/2000/svg"><path d="m235.793 0-91.815 137.674v87.275h-56.276v-87.275l-87.702-137.674h63.25l55.768 88.646 56.225-88.646z"/><path d="m330.294 175.451h-101.861l-20.717 50.024h-45.106l95.38-224.949h46.137l91.51 224.949h-48.2l-17.144-50.024zm-16.92-44.911-31.226-82.55-34.837 82.55z" fill="#cb171e"/><path d="m87.701 250.177v220.47h47.303v-152.078l49.505 102.22h37.234l51.196-105.813v155.626h45.379v-220.425h-61.96l-54.977 99.706-52.36-99.706z"/><path d="m512 422.735h-116.362v-172.61h-48.196v219.522h164.558v-46.91z"/></svg>
