<svg enable-background="new 0 0 512 512" viewBox="0 0 512 512" xmlns="http://www.w3.org/2000/svg"><path d="m256 0c-.07 0-.14 0-.21 0-.03 0-.05 0-.07 0-.05 0-.09 0-.14 0-.03 0-.05 0-.08 0-.04 0-.09 0-.13 0-.03 0-.06 0-.08 0-.04 0-.09 0-.13 0-.03 0-.07 0-.09 0-.04 0-.08 0-.12 0-.03 0-.06 0-.09 0-.04 0-.08 0-.12 0-.03 0-.06 0-.1 0s-.08 0-.11 0-.06 0-.1 0-.08 0-.12 0c-.03 0-.07 0-.1 0-.04 0-.07 0-.11 0-.03 0-.06 0-.1 0s-.07 0-.11 0c-.03 0-.07 0-.1 0-.04 0-.07 0-.11 0-.03 0-.07 0-.1 0-.04 0-.08 0-.11 0s-.06 0-.1 0-.08 0-.11 0-.07 0-.09 0c-.04 0-.08 0-.12 0-.03 0-.06 0-.1 0s-.08 0-.12 0c-.03 0-.06 0-.09 0-.04 0-.08 0-.12 0-.03 0-.06 0-.09 0-.04 0-.08 0-.11 0s-.06 0-.1 0-.07 0-.11 0c-.03 0-.07 0-.1 0-.04 0-.08 0-.12 0-.03 0-.06 0-.09 0-.04 0-.08 0-.12 0-.03 0-.06 0-.09 0-.04 0-.09 0-.13 0-.03 0-.06 0-.08 0-.07 0-.14 0-.21 0-.03 0-.06 0-.08 0-.04 0-.09 0-.13 0-.03 0-.07 0-.1 0-.04 0-.07 0-.11 0s-.07 0-.11 0c-.03 0-.07 0-.1 0s-.07 0-.11 0c-.03 0-.07 0-.1 0s-.07 0-.11 0-.07 0-.11 0c-.03 0-.07 0-.11 0-.03 0-.07 0-.1 0s-.07 0-.11 0c-.03 0-.07 0-.1 0s-.07 0-.1 0c-.04 0-.07 0-.11 0-.03 0-.07 0-.1 0-.04 0-.07 0-.11 0-.03 0-.07 0-.11 0-.03 0-.07 0-.1 0s-.08 0-.11 0-.07 0-.1 0-.08 0-.11 0c-.04 0-.07 0-.1 0s-.07 0-.11 0c-.03 0-.07 0-.1 0-.04 0-.07 0-.11 0-.03 0-.07 0-.1 0s-.08 0-.11 0c-.04 0-.07 0-.1 0s-.07 0-.11 0-.07 0-.11 0c-.03 0-.07 0-.1 0-.04 0-.07 0-.11 0-.03 0-.07 0-.11 0-.03 0-.06 0-.09 0-.04 0-.07 0-.12 0-.03 0-.06 0-.09 0-.04 0-.08 0-.12 0-.03 0-.06 0-.08 0-.04 0-.09 0-.13 0 0 0-.01 0-.02 0-.11 0-.23.01-.34.01-.02 0-.04 0-.06 0-.04 0-.08 0-.12 0-.03 0-.06 0-.09 0-.04 0-.07 0-.11 0-.03 0-.07 0-.1 0-.04 0-.07 0-.11 0-.03 0-.06 0-.09 0s-.09 0-.12 0-.06 0-.09 0c-.04 0-.08 0-.12 0-.03 0-.06 0-.09 0-.04 0-.07 0-.12 0-.03 0-.06 0-.09 0-.04 0-.08 0-.12 0-.03 0-.06 0-.09 0-.04 0-.08 0-.12.01-.03 0-.06 0-.09 0-.04 0-.08 0-.12.01-.03 0-.06 0-.09 0s-.08 0-.11 0-.07 0-.1 0-.08 0-.11.01c-.03 0-.06 0-.09 0-.04 0-.07 0-.12.01-.03 0-.06 0-.09 0-.04 0-.08 0-.12.01-.03 0-.06 0-.09 0-.04 0-.08 0-.12.01-.03 0-.06 0-.09 0-.04 0-.08 0-.12.01-.03 0-.06 0-.09 0s-.09 0-.12.01c-.03 0-.06 0-.09 0-.04 0-.08 0-.13.01-.03 0-.05 0-.08 0-.04 0-.08 0-.12.01-.03 0-.06 0-.08 0-.04 0-.09 0-.13.01-.01 0-.03 0-.04 0-.31.02-.64.03-.94.05-.02 0-.03 0-.04 0-.05 0-.1.01-.15.01-.02 0-.04 0-.05 0-.05 0-.09 0-.14.01-.02 0-.05 0-.07 0-.04 0-.09.01-.13.01-.02 0-.05 0-.07 0-.04 0-.09.01-.14.01-.02 0-.05 0-.07 0-.04 0-.09.01-.14.01-.02 0-.05 0-.07 0-.04 0-.09.01-.14.01-.02 0-.05 0-.08 0-.04 0-.09.01-.13.01-.02 0-.05 0-.07 0-.04 0-.09.01-.13.01-.03 0-.05 0-.08 0-.04 0-.09.01-.13.01-.03 0-.05 0-.08 0-.04 0-.09.01-.13.01-.03 0-.05 0-.08.01-.04 0-.09.01-.13.01-.02 0-.05 0-.08 0-.04 0-.09.01-.13.01-.02 0-.05 0-.07 0-.04 0-.09.01-.13.01-.02 0-.04 0-.07 0-.04 0-.1.01-.14.01-.02 0-.04 0-.06 0-.05 0-.1.01-.15.01-.02 0-.03 0-.05 0-.05 0-.11.01-.16.01-.01 0-.02 0-.04 0-.06 0-.11.01-.17.01h-.01c-.34.02-.67.05-1.01.07-.06 0-.13.01-.19.01 0 0-.01 0-.02 0-.06 0-.11.01-.17.01-.02 0-.03 0-.04 0-.05 0-.1.01-.15.01-.02 0-.04 0-.05 0-.05 0-.09.01-.15.01-.02 0-.04 0-.06 0-.04 0-.1.01-.15.01-.02 0-.04 0-.06 0-.04 0-.1.01-.15.01-.02 0-.04 0-.06 0-.05 0-.1.01-.15.01-.02 0-.04 0-.06 0-.05 0-.1.01-.15.01-.02 0-.04 0-.06 0-.05 0-.1.01-.15.01-.02 0-.03 0-.05 0-.05 0-.1.01-.15.01-.02 0-.04 0-.06 0-.05 0-.1.01-.15.01-.02 0-.04 0-.05 0-.05 0-.1.01-.15.01-.02 0-.03 0-.05 0-.05 0-.1.01-.15.01-.02 0-.04 0-.05 0-.06 0-.1.01-.15.01-.01 0-.03 0-.04 0-.06 0-.11.01-.16.01-.01 0-.02 0-.03 0-.06.01-.12.01-.18.02h-.01c-.54.05-1.06.09-1.6.14h-.01c-.07.01-.13.01-.19.02h-.01c-.06.01-.12.01-.18.02-.01 0-.02 0-.03 0-.06.01-.11.01-.17.02-.01 0-.02 0-.04 0-.06.01-.1.01-.16.02-.02 0-.03 0-.04 0-.05 0-.11.01-.16.02-.02 0-.03 0-.04 0-.05 0-.11.01-.16.02-.02 0-.03 0-.05 0-.05 0-.11.01-.16.02-.01 0-.03 0-.04 0-.05 0-.11.01-.16.02-.01 0-.03 0-.04 0-.05 0-.12.01-.17.02-.01 0-.02 0-.03 0-.06.01-.11.01-.17.02-.01 0-.02 0-.04 0-.06.01-.11.01-.17.02-.01 0-.02 0-.03 0-.06.01-.11.01-.17.02-.01 0-.02 0-.03 0-.06.01-.12.01-.18.02 0 0 0 0-.01 0-.81.08-1.6.17-2.41.26-.07.01-.13.01-.19.02h-.01c-.07.01-.12.01-.19.02h-.01c-.07.01-.12.01-.18.02-.01 0-.01 0-.02 0-.07.01-.11.01-.18.02-.01 0-.01 0-.02 0-.07.01-.11.01-.18.02-.01 0-.01 0-.02 0-.07.01-.12.01-.19.02h-.01c-.07.01-.13.01-.19.02h-.01c-25.99 3.05-50.79 10-73.8 20.25-16.09 7.21-23.32 26.09-16.15 42.21 5.3 11.92 17 19 29.26 19 4.34 0 8.76-.89 12.99-2.77 24.49-10.54 50.7-16.08 77.86-16.08 17.67 0 32-14.33 32-32s-14.33-32-32-32zm-213.18 154.96c-13.5 0-26.06 8.62-30.44 22.16s-7.66 27.57-9.74 41.99v.01c-.01.05-.01.1-.02.15v.01c-.03.2-.06.41-.09.61v.02c-.03.2-.06.4-.08.59v.03c-.01.05-.01.09-.02.14v.01c-.02.15-.04.3-.06.46v.01c-.01.05-.01.1-.02.15v.02c-.03.2-.05.4-.08.61v.01c-.01.05-.01.1-.02.14v.02c-.02.15-.04.3-.06.45-.01.05-.01.09-.02.14v.03c-.03.2-.05.4-.08.6v.02c-.01.05-.01.1-.02.14v.01c-.02.15-.04.3-.06.45v.01c-.01.05-.01.09-.02.14v.03c-.01.05-.01.09-.02.14v.01c-.02.15-.04.29-.05.44v.03c-.01.04-.01.09-.02.13v.04c-.02.14-.03.28-.05.42v.04c0 .04-.01.08-.01.12 0 .02 0 .04-.01.06 0 .04-.01.08-.01.12v.04c-.02.14-.03.27-.05.41 0 .02 0 .03-.01.05 0 .04-.01.08-.01.12v.04c-.02.14-.03.28-.05.41v.04c0 .04-.01.08-.01.13 0 .02 0 .03-.01.05 0 .04-.01.08-.01.13v.03c-.02.14-.03.28-.05.42v.04c0 .04-.01.08-.01.12 0 .02 0 .04-.01.05-.02.14-.03.27-.04.41v.03c0 .04-.01.09-.01.13v.04c0 .04-.01.08-.01.13v.03c-.01.14-.03.27-.04.41 0 .02 0 .03-.01.05 0 .04-.01.08-.01.12 0 .03 0 .03-.01.05 0 .04-.01.08-.01.12v.02c-.01.09-.02.17-.03.26v.04c0 .04-.01.08-.01.13v.05c0 .04-.01.08-.01.13v.04c-.01.13-.03.26-.04.4 0 .03 0 .04-.01.07 0 .03-.01.07-.01.11 0 .03 0 .05-.01.07 0 .04-.01.07-.01.11v.04c-.01.08-.01.15-.02.23 0 .02 0 .04-.01.06 0 .04-.01.07-.01.11 0 .02 0 .05-.01.07 0 .04-.01.07-.01.11 0 .02 0 .04-.01.06-.01.09-.02.18-.03.26v.01c0 .04-.01.07-.01.11 0 .03 0 .05-.01.07 0 .03-.01.07-.01.1s0 .05-.01.07c0 .04-.01.07-.01.1s0 .04-.01.06c-.01.07-.01.14-.02.2 0 .03 0 .04-.01.07 0 .03-.01.07-.01.1s0 .05-.01.08c0 .03-.01.07-.01.1s0 .06-.01.08c-.01.06-.01.11-.01.17 0 .03-.01.06-.01.09s-.01.07-.01.1 0 .06-.01.08c0 .03-.01.07-.01.1s-.01.06-.01.08c0 .03-.01.06-.01.1 0 .03-.01.06-.01.09 0 .05-.01.11-.01.16 0 .03 0 .05-.01.08 0 .03-.01.07-.01.1s0 .06-.01.08c0 .03-.01.06-.01.1 0 .03-.01.07-.01.09 0 .03-.01.06-.01.09 0 .05-.01.11-.01.16 0 .03-.01.06-.01.1 0 .03 0 .06-.01.09 0 .03-.01.06-.01.1 0 .03 0 .06-.01.09 0 .03 0 .06-.01.09 0 .03-.01.08-.01.11 0 .04-.01.09-.01.13 0 .03-.01.08-.01.11s0 .06-.01.08c0 .03-.01.07-.01.1s0 .06-.01.08c0 .04-.01.07-.01.11 0 .02 0 .05-.01.07 0 .05-.01.12-.01.17 0 .03 0 .06-.01.09 0 .03-.01.07-.01.1s0 .06-.01.09c0 .03 0 .06-.01.09 0 .03 0 .06-.01.09 0 .03-.01.07-.01.1 0 .04-.01.09-.01.13 0 .03-.01.08-.01.11s0 .06-.01.08c0 .03-.01.07-.01.1s0 .06-.01.08c0 .03 0 .07-.01.1 0 .03 0 .06-.01.08 0 .05-.01.12-.01.17 0 .02 0 .05-.01.08 0 .04 0 .07-.01.11 0 .03 0 .05-.01.08 0 .03-.01.07-.01.1s0 .05-.01.08c0 .04-.01.08-.01.12 0 .03 0 .07-.01.1 0 .04-.01.09-.01.13 0 .02 0 .05-.01.07 0 .03-.01.08-.01.11s0 .05-.01.08c0 .04-.01.08-.01.12v.06c0 .05-.01.12-.01.17v.08c0 .04 0 .06-.01.11 0 .03 0 .06-.01.08 0 .03 0 .07-.01.1 0 .03 0 .05-.01.08 0 .04-.01.09-.01.13v.07c0 .05-.01.1-.01.15v.08c0 .03 0 .08-.01.11v.08c0 .04 0 .07-.01.11v.07c0 .06-.01.12-.01.18v.05c0 .04-.01.09-.01.13v.07c0 .03-.01.09-.01.13v.06c0 .05-.01.12-.01.17v.02c0 .06-.01.12-.01.18v.06c0 .04 0 .08-.01.12v.07c0 .04 0 .08-.01.12v.06c0 .06-.01.12-.01.18v.06c0 .04 0 .08-.01.12v.07c0 .03 0 .08-.01.12v.07c0 .04-.01.09-.01.14v.05c0 .06-.01.12-.01.18v.07c0 .03 0 .08-.01.11v.08c0 .04 0 .07-.01.11v.08c0 .06-.01.11-.01.17v.05c0 .04 0 .09-.01.13v.07c0 .03 0 .08-.01.11v.08c0 .04 0 .08-.01.12v.08c0 .05-.01.11-.01.16v.07c0 .03 0 .08-.01.12v.08c0 .04 0 .08-.01.12v.07c0 .06-.01.12-.01.18v.05c0 .04 0 .09-.01.14v.07c0 .03 0 .09-.01.12v.07c0 .05 0 .1-.01.16v.03c0 .06-.01.12-.01.18v.06c0 .04 0 .09-.01.13v.06c0 .05 0 .08-.01.14v.05c0 .06 0 .12-.01.18v.04c0 .05 0 .09-.01.15v.07.12.07c0 .04 0 .1-.01.14v.05c0 .06 0 .12-.01.18v.05.13.07.13.06c0 .06 0 .12-.01.18v.04.15.07.12.07.14.04c0 .06 0 .12-.01.18v.05.14.06.14.05c0 .06 0 .12-.01.18v.04.15.07.12.07.13.06.18.05.13.07.13.06.18.02.16.06.14.05.17.02.19.05.14.06.14.05.19.02.17.06.13.06.14.05.18.06.13.07.13.06.19.02.17.05.14.06.15.04.19.05.15.06.13.06.38.05.14.05.15.04.19.04.15.06.13.06.19.21.09.12.09.12.1.11.11.1.11.1.11.1.1.11.1.1.1.11.1.11.1.11.1.11.1.11.1.11.1.11.1.1.1.11.1.1.1.1.11.1.11.1.11.1.11.1.11.1.11.1.11.1.11.1.11.1.11.1.11.1.11.1.11.09.11.09.12.09.11.09.12.08.12.08.12.08.12.08.13.02c0 .06 0 .13.01.19v.02l.03.75v.06c0 .05 0 .09.01.14v.07.13.08c0 .05 0 .09.01.14v.06c0 .05 0 .09.01.14v.07c0 .05 0 .08.01.14v.07c0 .05 0 .08.01.13v.08c0 .04 0 .09.01.13v.07c0 .04 0 .1.01.14v.07c0 .04 0 .09.01.13v.07c0 .04 0 .08.01.13v.08c0 .04 0 .09.01.13v.07c0 .04 0 .09.01.14v.07c0 .04 0 .09.01.14v.07c0 .04 0 .09.01.13v.08c0 .04 0 .09.01.13v.08c0 .04 0 .09.01.13v.08c0 .04 0 .09.01.13v.08c0 .04 0 .09.01.13v.08c0 .05 0 .08.01.14v.07c0 .05 0 .09.01.14v.06c0 .05 0 .09.01.14v.06c0 .05 0 .09.01.14v.07c0 .05 0 .09.01.14v.06c0 .05.01.1.01.15v.06c0 .05.01.1.01.15v.05c0 .05.01.1.01.15v.05c0 .06.01.1.01.16v.04c0 .06.01.11.01.17v.03c0 .06.01.11.01.17v.03c0 .06.01.12.01.18v.03c0 .06.01.12.01.18v.01c0 .07.01.13.01.19v.01c.22 3.63.52 7.22.9 10.81 1.74 16.42 15.62 28.63 31.78 28.63 1.11 0 2.22-.06 3.35-.17 17.58-1.83 30.35-17.56 28.52-35.14-.65-6.61-1-13.39-1-20.13 0-20.25 3.12-40.16 9.28-59.18 5.44-16.82-3.78-34.86-20.6-40.3-3.27-1.05-6.59-1.56-9.86-1.56zm81.93 250.56c-9.91 0-19.68 4.59-25.94 13.23-10.37 14.31-7.18 34.32 7.14 44.69 1.73 1.25 3.47 2.48 5.22 3.69.05.04.11.07.16.11.01 0 .01.01.02.01.05.04.11.07.16.11l.01.01c.05.04.11.07.16.11.01 0 .01 0 .01.01.05.04.1.07.16.11l.01.01c.05.04.11.07.16.11.01 0 .01 0 .01.01.4.27.79.54 1.19.81h.01c.05.03.11.07.16.11.01 0 .02.02.03.02.05.03.09.06.14.09.01.01.02.01.03.02.04.03.09.06.13.09.02.01.03.02.05.03.04.03.08.05.12.08.01.01.04.02.05.03.04.03.08.05.12.08.02.01.03.02.05.04.04.03.08.05.11.08.02.01.03.02.05.04.04.02.07.05.11.07.02.01.04.03.06.04.04.03.08.05.11.08.02.01.03.02.05.04.04.03.08.05.12.08.01.01.04.03.05.04.04.03.08.05.12.08.02.01.03.02.05.03.06.04.11.07.17.11.06.04.11.07.17.11.02.01.04.03.06.04.04.02.07.05.1.07.02.01.06.04.08.05l.09.06c.03.02.06.04.08.05.03.02.06.04.08.05l.09.06c.03.02.05.03.08.05s.06.04.09.06.05.03.08.05.06.04.1.06c.02.02.05.03.07.04.03.02.07.05.1.06.02.02.04.03.07.04.03.02.07.04.1.07.02.01.04.03.06.04.03.02.07.05.11.07.02.01.04.02.06.04.04.03.08.05.12.08.01.01.02.02.04.02.05.03.08.05.13.08.01.01.02.01.03.02.31.2.61.39.92.59.01.01.02.01.03.02.05.03.09.06.14.09.01 0 .02.01.03.02.05.03.09.06.13.09.01.01.02.01.03.02.04.03.09.06.13.08.01.01.02.01.03.02.04.03.09.06.13.08.01.01.02.01.04.02.04.03.09.06.13.09.01 0 .02.01.03.02.05.03.09.06.14.09.01 0 .01.01.02.01.05.03.1.06.15.09 0 0 .01.01.01.01.05.03.1.06.15.1 22.6 14.3 47.59 25.15 74.24 31.83.58.14 1.15.29 1.73.43h.01c.06.01.12.03.18.04h.02c.06.01.12.03.17.04.01 0 .02 0 .02.01.06.01.11.03.16.04.01 0 .02.01.03.01.05.01.12.03.16.04.01 0 .02 0 .03.01.06.01.11.03.17.04.01 0 .02 0 .03.01.06.01.11.03.17.04h.02c.06.01.12.03.17.04.01 0 .02 0 .03.01.06.01.12.03.17.04.31.07.62.15.94.22.01 0 .02 0 .03.01.05.01.1.02.14.03.02 0 .04.01.06.01.05.01.08.02.13.03.03.01.05.01.08.02.04.01.07.02.11.03.03.01.06.01.09.02.04.01.07.02.11.03.03.01.06.01.09.02.04.01.07.02.11.03.03.01.06.01.09.02s.08.02.11.03.06.01.09.02c.04.01.07.02.11.02.03.01.06.01.09.02.04.01.07.02.11.03.03.01.06.01.09.02s.08.02.11.02c.03.01.06.01.09.02s.07.02.11.02c.03.01.06.01.1.02s.06.01.1.02c.03.01.07.02.1.02.03.01.07.01.1.02.07.01.13.03.2.04.02 0 .03.01.05.01l.15.03c.02.01.05.01.07.02.04.01.09.02.13.03.02.01.05.01.07.02.04.01.09.02.13.03.02.01.05.01.08.02.04.01.08.02.13.03.03.01.04.01.08.02s.09.02.13.03c.02.01.05.01.08.02.04.01.08.02.13.03.02.01.05.01.07.02.04.01.09.02.13.03.02.01.05.01.07.02.05.01.09.02.13.03.02.01.04.01.07.01.05.01.09.02.14.03.02 0 .05.01.07.01l.15.03c.02 0 .03.01.05.01.06.01.11.02.17.04.02 0 .02 0 .03.01.14.03.27.06.41.09 2.22.47 4.44.69 6.62.69 14.81 0 28.11-10.35 31.28-25.42 3.64-17.29-7.43-34.26-24.73-37.9-26.34-5.54-50.8-16.4-72.71-32.27-5.69-4.17-12.26-6.15-18.77-6.15zm325.56-69.95c-11.07 0-21.84 5.75-27.76 16.04-13.29 23.09-31.71 43.64-53.25 59.42-14.26 10.44-17.35 30.47-6.91 44.72 6.27 8.56 15.99 13.09 25.84 13.09 6.56 0 13.18-2.01 18.88-6.19 2.47-1.81 4.91-3.67 7.32-5.57.44-.35.87-.69 1.31-1.04.05-.04.11-.09.16-.13l.01-.01c.05-.04.1-.08.15-.12.01-.01.01-.01.02-.01.05-.04.1-.08.14-.12.01-.01.01-.01.02-.01.05-.04.1-.08.14-.12.01-.01.01-.01.02-.01.05-.04.1-.08.15-.12.01-.01 0 0 .01-.01.05-.04.11-.09.16-.13.27-.22.54-.44.81-.66l.01-.01c.05-.04.1-.08.14-.12.01-.01.02-.02.03-.02.04-.04.09-.07.13-.11.01-.01.02-.01.03-.02.04-.04.09-.07.13-.11.01-.01.02-.01.03-.02.04-.04.09-.07.13-.11.01-.01.02-.02.03-.02.05-.04.09-.07.13-.11.01-.01.01-.01.02-.02.05-.04.1-.08.15-.12l.01-.01c.27-.22.53-.44.8-.66.01-.01 0 0 0 0 .05-.04.1-.09.15-.13.01-.01.01-.01.01-.01.05-.04.09-.08.14-.12.01-.01.02-.01.03-.03.04-.03.09-.07.13-.11.01-.01.03-.02.03-.03.04-.03.08-.07.12-.1.01-.01.02-.02.03-.03.04-.03.08-.07.12-.1.01-.01.02-.02.03-.03.04-.03.08-.07.12-.1.01-.01.03-.02.04-.03.04-.03.08-.07.13-.11.01-.01.01-.01.03-.02.26-.22.52-.44.79-.66l.02-.02c.04-.04.09-.07.13-.11.01-.01.03-.02.04-.03.04-.03.07-.06.11-.1.02-.02.03-.02.05-.04.04-.03.07-.06.11-.09l.04-.04c.04-.03.07-.06.11-.09.02-.02.03-.02.05-.04.04-.03.07-.06.11-.09l.04-.04c.04-.03.08-.07.12-.1.02-.02.02-.02.04-.03.04-.04.08-.07.13-.11.01-.01.01-.01.03-.02.05-.04.1-.08.14-.12l.01-.01c.1-.09.21-.18.31-.27l.03-.03c.04-.04.08-.07.12-.11l.03-.03c.04-.04.08-.07.12-.1l.04-.04c.04-.03.08-.07.11-.1l.04-.04c.04-.03.07-.06.11-.09.02-.02.03-.03.05-.04.04-.03.07-.06.11-.09.01-.01.04-.03.05-.04.03-.03.07-.06.1-.09.02-.02.04-.03.05-.05.03-.03.07-.06.1-.09l.05-.05c.03-.03.07-.06.1-.09.02-.02.03-.03.05-.05.04-.03.08-.07.12-.1.01-.01.02-.02.03-.03.05-.04.1-.09.15-.13.05-.05.1-.09.16-.14.01-.01 0 0 0 0 .05-.04.1-.09.15-.13.01-.01.03-.02.04-.03.04-.03.08-.07.11-.1.02-.02.03-.03.05-.05.03-.03.07-.06.1-.09.02-.02.03-.03.06-.05.03-.03.06-.06.09-.08.02-.02.04-.04.06-.05.03-.03.06-.05.09-.08.02-.02.04-.03.06-.06.03-.03.06-.05.09-.08.02-.02.04-.04.06-.05.03-.03.06-.06.09-.08.02-.02.04-.03.06-.05.03-.03.07-.06.1-.09.02-.02.03-.03.05-.04.04-.03.07-.06.11-.1.01-.01.03-.03.04-.04.04-.04.09-.08.13-.11.01-.01.02-.01.02-.02.1-.09.2-.18.31-.27.01-.01.03-.02.04-.03.04-.03.07-.07.11-.1.02-.02.04-.04.06-.05.03-.03.06-.06.09-.08.02-.02.04-.03.05-.05.03-.03.06-.06.09-.08.02-.02.04-.04.06-.05.03-.03.06-.06.09-.08.02-.02.04-.03.06-.06.03-.03.05-.05.08-.08.02-.02.04-.04.07-.06s.05-.05.08-.07c.02-.02.05-.04.07-.06.03-.02.06-.05.08-.07s.04-.04.07-.06c.03-.03.06-.05.09-.08.02-.02.04-.04.06-.06.03-.03.06-.05.08-.08.02-.02.04-.04.07-.06.03-.03.07-.06.1-.09.02-.02.03-.03.05-.04.05-.05.1-.09.15-.14.01-.01.02-.01.02-.02.04-.04.08-.08.13-.11.02-.02.04-.04.06-.05.03-.03.06-.05.09-.08.02-.02.04-.04.07-.06l.08-.08.06-.06c.03-.03.06-.05.09-.08.02-.02.05-.04.06-.06.03-.03.06-.05.08-.08l.06-.06c.03-.02.05-.05.08-.08.02-.02.05-.04.07-.06.03-.02.05-.05.08-.08.02-.02.05-.04.06-.06.03-.03.06-.05.09-.08l.06-.06c.03-.03.06-.05.08-.08l.06-.06c.03-.03.06-.06.09-.08.02-.02.04-.03.06-.05.1-.09.2-.18.29-.27.02-.02.03-.03.06-.05.03-.03.06-.06.09-.08.02-.02.05-.04.06-.06.03-.03.05-.05.08-.07.02-.02.05-.04.07-.06.03-.03.05-.05.08-.08.02-.02.05-.04.06-.06.03-.03.05-.05.08-.08.02-.02.04-.04.07-.06s.05-.05.08-.07c.02-.02.05-.04.07-.07.03-.02.05-.05.08-.07.02-.02.05-.04.07-.07.03-.03.05-.05.08-.08.02-.02.04-.04.07-.06.03-.03.05-.05.08-.08.02-.02.04-.04.06-.06.03-.03.06-.05.08-.08.02-.02.04-.04.06-.06.03-.03.06-.06.09-.09.02-.02.04-.03.05-.05.05-.04.1-.09.14-.13.02-.02.04-.04.06-.06.03-.03.06-.05.09-.08.02-.02.04-.04.06-.06.03-.03.05-.05.08-.08.02-.02.04-.04.06-.06.03-.03.06-.05.08-.08.02-.02.04-.04.07-.06s.05-.05.08-.07c.02-.02.05-.04.07-.07.03-.02.05-.05.08-.07.02-.02.05-.05.07-.07.03-.02.05-.05.07-.07s.05-.04.07-.07c.03-.02.05-.05.08-.07.02-.02.05-.05.07-.07.03-.02.05-.05.07-.07s.05-.04.07-.07c.03-.02.05-.05.08-.07.02-.02.05-.05.07-.07.03-.03.06-.05.08-.08.02-.02.04-.04.06-.06.03-.03.06-.06.09-.09.04-.04.07-.07.11-.11.03-.03.05-.05.08-.08.02-.02.04-.04.07-.06s.05-.05.08-.07c.02-.02.05-.05.07-.06.03-.03.05-.05.08-.08.02-.02.04-.04.07-.07.02-.02.05-.05.07-.07s.05-.05.07-.07.05-.05.07-.07.05-.04.07-.07c.02-.02.05-.05.08-.07.02-.02.04-.04.07-.07s.05-.05.08-.08c.02-.02.05-.05.07-.06.02-.02.05-.05.07-.07s.05-.05.07-.07.05-.05.08-.07c.02-.02.04-.04.07-.07s.05-.05.08-.08c.02-.02.04-.04.06-.06.03-.03.06-.06.09-.09.02-.02.03-.03.05-.05.05-.05.09-.09.14-.14.02-.02.04-.04.07-.06.03-.03.05-.05.08-.08.02-.02.04-.04.06-.06.03-.03.05-.05.08-.08.02-.02.04-.04.06-.06.03-.03.05-.05.08-.08.02-.02.04-.04.07-.07.02-.02.05-.05.07-.07s.05-.05.07-.07.05-.05.07-.07.04-.04.06-.06c.03-.03.05-.05.08-.08.02-.02.04-.04.06-.06.03-.03.05-.05.08-.08.02-.02.04-.04.07-.06.02-.02.05-.05.08-.08.02-.02.05-.04.07-.07.03-.03.05-.05.08-.08.02-.02.04-.04.06-.06.03-.03.06-.06.09-.09.02-.02.03-.03.06-.06.04-.04.08-.08.13-.13.02-.02.03-.03.04-.04.04-.04.07-.07.11-.11.02-.02.03-.03.05-.05.03-.03.06-.06.09-.09.02-.02.04-.04.06-.06.03-.03.06-.06.08-.08s.04-.04.07-.07.05-.05.08-.08c.02-.02.05-.05.07-.07s.05-.05.07-.07.05-.05.07-.07.05-.05.07-.07.05-.05.07-.07.05-.05.07-.07c.03-.03.04-.04.07-.07.02-.02.05-.05.07-.08.02-.02.04-.04.07-.07.02-.02.05-.05.07-.08.02-.02.04-.04.07-.07s.05-.05.08-.08c.02-.02.04-.04.06-.06.03-.03.05-.05.08-.08.02-.02.04-.04.06-.06.05-.05.09-.09.14-.14.02-.02.05-.05.07-.07s.05-.05.07-.07c.03-.03.05-.05.07-.08.02-.02.04-.04.07-.07.02-.02.05-.05.07-.07s.05-.05.07-.07.05-.05.07-.07.05-.05.07-.07.05-.05.07-.07c.03-.03.05-.05.07-.08.02-.02.05-.05.07-.07s.05-.05.07-.07.05-.05.07-.07.05-.05.07-.07c.03-.03.05-.05.07-.08.02-.02.04-.04.06-.07.02-.02.05-.05.07-.08.02-.02.04-.04.06-.07.03-.03.05-.05.08-.08.02-.02.04-.04.06-.06.03-.03.05-.05.07-.08.02-.02.05-.05.07-.07.04-.05.08-.08.12-.13.03-.03.05-.05.08-.08.02-.02.05-.05.07-.07s.05-.05.07-.07c.03-.03.05-.05.07-.08.02-.02.04-.05.07-.07.02-.02.05-.05.07-.07s.04-.05.07-.07c.03-.03.04-.05.07-.07.02-.02.05-.05.07-.07s.05-.05.07-.07.04-.04.06-.07c.02-.02.05-.06.08-.08.02-.02.04-.04.06-.07.03-.03.05-.05.07-.08.02-.02.04-.05.07-.07.02-.02.05-.05.07-.07s.05-.05.07-.07.05-.05.07-.07.04-.04.06-.06c.03-.03.05-.05.08-.08.01-.02.03-.03.05-.05.1-.1.21-.22.31-.32.02-.02.03-.03.05-.05.03-.03.06-.06.08-.09.02-.02.04-.04.05-.05.03-.03.06-.06.08-.09.02-.02.04-.04.05-.06.03-.03.05-.05.08-.08.02-.02.04-.04.06-.07.03-.03.05-.05.08-.08.02-.02.04-.04.06-.06s.05-.06.08-.08c.02-.02.04-.04.06-.06.03-.03.05-.06.08-.08.02-.02.04-.04.06-.06.03-.03.05-.05.08-.08.02-.02.04-.04.06-.07.02-.02.05-.06.08-.08.02-.02.04-.04.06-.06.03-.03.05-.05.08-.08.02-.02.04-.04.05-.06.03-.03.06-.06.08-.09.01-.01.02-.02.03-.03.06-.06.12-.13.18-.19.02-.02.04-.04.06-.06.03-.03.05-.05.08-.08.02-.02.04-.04.06-.07.02-.02.05-.06.07-.08s.04-.04.06-.07c.02-.02.05-.06.08-.08.02-.02.04-.04.06-.07.03-.03.05-.05.07-.08.02-.02.04-.04.06-.06.03-.03.05-.05.08-.08.02-.02.04-.04.06-.06.03-.03.05-.05.08-.08.02-.02.04-.04.06-.06.03-.03.05-.06.08-.09.02-.02.04-.04.06-.06.03-.03.05-.05.08-.08.02-.02.04-.04.06-.06s.06-.06.08-.08.04-.04.06-.06c.03-.03.05-.06.08-.09.01-.01.03-.03.04-.04.1-.11.21-.22.31-.34.02-.02.03-.03.05-.05.03-.03.05-.06.08-.09.02-.02.04-.04.06-.06s.05-.06.07-.08.04-.05.06-.07c.03-.03.05-.06.08-.08.02-.02.04-.04.06-.06.03-.03.05-.05.08-.08.02-.02.04-.04.06-.06s.06-.06.08-.09c.02-.02.04-.04.06-.06.03-.03.05-.06.08-.09.02-.02.04-.04.05-.06.03-.03.06-.06.08-.09.02-.02.03-.03.05-.05.03-.03.06-.07.09-.1.01-.02.03-.03.04-.05.03-.04.06-.07.09-.1.01-.01.02-.02.03-.03.11-.12.24-.26.35-.39 0 0 .01-.01.01-.01.03-.04.06-.07.09-.11l.04-.04c.03-.04.05-.06.09-.1.02-.02.03-.04.05-.05.03-.03.06-.06.08-.09.02-.02.03-.04.05-.05.03-.03.06-.06.08-.09.02-.02.04-.04.05-.06.03-.03.05-.06.08-.09.02-.02.04-.04.05-.06.03-.03.05-.06.08-.09.02-.02.04-.04.06-.06.03-.03.05-.06.08-.09.02-.02.03-.04.05-.06.03-.03.06-.07.08-.1l.05-.05c.03-.04.05-.06.09-.1.02-.02.03-.03.04-.05.03-.04.06-.06.09-.1l.03-.03c.11-.13.22-.25.33-.38.01-.01.02-.02.02-.03.03-.04.05-.06.09-.1.01-.02.03-.04.05-.05.03-.03.06-.07.09-.1.02-.02.03-.03.04-.05.03-.03.06-.07.08-.1l.05-.05c.03-.03.06-.07.08-.1.02-.02.03-.04.05-.06.03-.03.05-.06.08-.09.02-.02.04-.04.05-.06.03-.03.05-.06.08-.09.02-.02.03-.04.05-.06.03-.03.05-.06.08-.09.01-.02.03-.04.05-.05.03-.03.06-.07.09-.1.02-.02.03-.03.04-.05.03-.04.05-.06.08-.1.02-.02.03-.04.05-.06.14-.16.29-.33.43-.49.01-.01.02-.03.04-.04.03-.04.06-.07.09-.1.01-.01.03-.03.04-.05.03-.03.06-.07.08-.1.02-.02.03-.04.05-.06.03-.03.05-.06.08-.09.02-.02.03-.04.05-.05.03-.03.06-.06.08-.1.02-.02.03-.04.05-.06.03-.03.05-.06.08-.09.02-.02.03-.04.05-.06.03-.03.06-.07.08-.1.01-.01.03-.03.04-.05.03-.04.06-.07.09-.11.01-.01.02-.02.03-.03.04-.04.06-.07.1-.12.01-.01.02-.02.02-.03.16-.18.3-.36.46-.54.01-.01.01-.02.02-.02.03-.04.06-.07.09-.11.01-.01.02-.03.04-.04.03-.04.06-.07.09-.1.01-.02.03-.03.04-.05.03-.03.06-.07.09-.1.01-.02.03-.03.04-.05.03-.03.06-.07.09-.1.01-.02.03-.03.04-.05.03-.04.06-.07.09-.1.01-.02.03-.03.04-.05.03-.04.06-.07.09-.1.01-.02.03-.03.04-.05.03-.03.06-.07.09-.11.01-.02.02-.03.04-.05.03-.03.06-.07.09-.1.01-.02.03-.03.04-.05.03-.04.06-.07.09-.11l.02-.02c.15-.18.31-.37.47-.56 0-.01.01-.01.01-.02.03-.04.06-.08.1-.11.01-.01.02-.03.03-.04.03-.03.06-.07.09-.1.01-.02.03-.03.04-.05.03-.03.05-.07.08-.1.02-.02.03-.04.05-.06.03-.04.05-.06.08-.1.01-.02.03-.04.04-.05.03-.04.05-.07.08-.1.02-.02.03-.03.04-.05.03-.03.06-.07.08-.1.01-.02.03-.03.04-.05.03-.03.06-.07.08-.1.01-.02.02-.03.04-.05.03-.04.06-.07.09-.11.01-.01.01-.02.02-.02.19-.24.39-.48.58-.71 0-.01.01-.01.01-.01.04-.04.07-.08.1-.13.01-.01.02-.02.02-.03.04-.04.06-.07.1-.12.01-.01.02-.02.03-.04.03-.04.07-.08.1-.12.01-.01.02-.02.02-.03.03-.04.07-.09.1-.12.01-.01.02-.02.02-.03.03-.04.07-.09.1-.12.01-.01.01-.02.02-.03.03-.04.07-.09.1-.12l.03-.03c.04-.04.06-.08.1-.12 0 0 .01-.01.01-.01.24-.29.47-.59.71-.88 0 0 .01-.01.01-.01.03-.04.07-.08.1-.13.01-.01.02-.02.02-.03.03-.04.07-.09.1-.12.01-.01.01-.02.02-.03.03-.04.07-.09.1-.12.01-.01.02-.02.03-.03.03-.04.07-.08.1-.12.01-.01.01-.02.02-.03.03-.04.06-.08.1-.12.01-.01.01-.02.02-.03.03-.04.07-.08.1-.13 0-.01.01-.01.01-.02.27-.35.54-.69.81-1.04 0 0 .01-.01.01-.01.03-.04.07-.09.11-.14 0-.01.01-.01.01-.02.03-.04.07-.09.1-.13.01-.01.01-.01.02-.02.03-.04.07-.09.1-.13.01-.01.01-.02.02-.02.03-.04.07-.09.1-.13.01-.01.01-.02.02-.02.03-.04.07-.09.11-.14 0 0 0 0 .01-.01.35-.46.7-.9 1.05-1.36 0 0 0 0 .01-.01.04-.05.07-.1.11-.15.04-.05.07-.1.11-.15 0 0 0 0 .01-.01.43-.56.85-1.12 1.27-1.68.04-.05.07-.1.11-.15 0 0 0 0 0-.01 6.13-8.2 11.79-16.78 16.92-25.7 8.75-15.3 3.48-34.81-11.81-43.62-5-2.88-10.49-4.26-15.91-4.26zm-28.32-261.97c-7.67 0-15.36 2.74-21.48 8.29-13.09 11.87-14.08 32.11-2.21 45.2 18.21 20.08 31.71 43.23 40.13 68.79 4.43 13.46 16.95 22 30.39 22 3.32 0 6.69-.52 10.01-1.61 16.79-5.53 25.91-23.62 20.39-40.4-2.48-7.52-5.29-14.89-8.43-22.08v-.01c-.03-.06-.05-.12-.08-.19 0-.01 0 0 0 0-.03-.06-.05-.12-.08-.19v-.01c-.03-.06-.05-.12-.08-.19-.03-.06-.06-.13-.08-.19-.22-.51-.45-1.02-.68-1.53 0-.01 0-.01-.01-.01-.03-.06-.05-.12-.08-.18 0-.01 0-.01-.01-.02-.03-.06-.05-.11-.08-.17 0-.01-.01-.02-.01-.03-.03-.06-.05-.11-.07-.16 0-.01-.01-.02-.01-.02-.03-.06-.05-.11-.08-.17l-.01-.02c-.03-.06-.05-.12-.08-.18v-.01c-.2-.44-.4-.89-.61-1.33 0-.01 0 0-.01-.01-.03-.06-.05-.12-.08-.18l-.01-.02c-.03-.06-.05-.12-.08-.17 0-.01-.01-.02-.01-.02-.03-.06-.05-.11-.08-.17 0-.01-.01-.01-.01-.02-.03-.06-.05-.11-.08-.17 0-.01-.01-.01-.01-.02-.03-.06-.05-.11-.08-.17 0-.01 0 0-.01-.01-.03-.06-.06-.12-.09-.18-.18-.38-.35-.76-.53-1.14v-.01c-.03-.06-.06-.12-.09-.18 0-.01 0 0-.01-.01-.03-.06-.05-.11-.08-.17 0-.01-.01-.01-.01-.02-.03-.06-.05-.11-.08-.17 0-.01-.01-.01-.01-.02-.03-.05-.05-.11-.08-.16 0-.01-.01-.02-.01-.03-.03-.06-.05-.11-.08-.16-.01-.01 0-.01-.01-.02-.03-.06-.06-.12-.08-.17 0-.01 0 0 0-.01-.18-.38-.36-.75-.54-1.13v-.01c-.03-.06-.06-.12-.09-.18 0-.01-.01-.01-.01-.02-.03-.06-.05-.11-.08-.16-.01-.01-.01-.01-.01-.03-.03-.05-.05-.1-.08-.16 0-.01-.01-.02-.01-.03-.02-.05-.05-.11-.08-.16-.01-.01-.01-.02-.01-.03-.03-.05-.05-.11-.08-.16 0-.01-.01-.01-.01-.02-.03-.06-.05-.11-.08-.17 0-.01 0-.01-.01-.02-.03-.06-.06-.12-.09-.18v-.01c-.03-.06-.06-.12-.09-.18-.18-.37-.37-.74-.55-1.12 0-.01-.01-.02-.01-.02-.03-.05-.05-.11-.08-.16 0-.01-.01-.02-.01-.03-.03-.05-.05-.11-.08-.16-.01-.01-.01-.02-.02-.03-.03-.05-.05-.1-.08-.16 0-.01-.01-.02-.01-.03-.03-.05-.05-.11-.08-.16-.01-.01-.01-.01-.01-.02-.03-.06-.06-.11-.09-.17 0-.01 0 0 0-.01-.22-.43-.44-.87-.66-1.3 0-.01 0 0-.01-.01-.03-.06-.06-.12-.09-.17l-.01-.01c-.03-.06-.06-.11-.09-.17 0-.01-.01-.02-.01-.03-.03-.05-.05-.1-.08-.16 0-.01-.01-.02-.01-.02-.03-.05-.05-.1-.08-.16 0-.01-.01-.02-.02-.03-.03-.05-.05-.11-.08-.16 0-.01-.01-.02-.01-.02-.03-.06-.06-.11-.08-.16 0-.01-.01-.01-.01-.02-.19-.37-.38-.74-.58-1.11v-.01c-.03-.06-.06-.12-.09-.17 0-.01-.01-.01-.01-.02-.03-.05-.06-.11-.08-.16 0-.01-.01-.02-.02-.03-.03-.05-.05-.1-.08-.16 0-.01-.01-.02-.01-.02-.03-.05-.06-.11-.09-.16 0-.01-.01-.01-.01-.02-.03-.06-.06-.11-.09-.17l-.01-.01c-.03-.06-.06-.12-.09-.17 0-.01 0 0-.01-.01-.23-.43-.46-.86-.69-1.29v-.01c-.03-.06-.06-.12-.09-.18l-.01-.01c-.03-.06-.06-.11-.09-.17 0-.01 0 0-.01-.01-.03-.06-.06-.11-.09-.17l-.01-.01c-.03-.06-.06-.12-.09-.17v-.01c-.03-.06-.06-.12-.1-.18 0-.01 0 0 0 0-.26-.49-.53-.97-.8-1.46 0-.01 0-.01-.01-.01-.03-.06-.06-.11-.09-.17 0-.01 0-.01-.01-.01-.03-.06-.06-.11-.09-.17 0-.01-.01-.01-.01-.02-.03-.05-.06-.11-.09-.16 0-.01-.01-.01-.01-.02-.03-.06-.06-.11-.09-.17l-.01-.01c-.03-.06-.06-.12-.1-.18-.27-.49-.54-.97-.81-1.45v-.01c-.03-.06-.07-.12-.1-.17 0-.01 0-.01-.01-.01-.03-.06-.06-.11-.1-.17l-.01-.01c-.03-.06-.06-.11-.1-.17l-.01-.01c-.34-.6-.69-1.21-1.04-1.81-.03-.06-.07-.12-.1-.18-.03-.06-.07-.12-.1-.18 0-.01 0 0 0-.01-.03-.06-.07-.12-.1-.18-.38-.66-.77-1.32-1.16-1.98-8.8-14.82-19.06-28.68-30.57-41.38-6.33-6.96-15.01-10.5-23.73-10.5z"/></svg>