<?xml version="1.0" encoding="utf-8"?>
<!-- Generator: Adobe Illustrator 26.3.1, SVG Export Plug-In . SVG Version: 6.00 Build 0)  -->
<svg version="1.2" baseProfile="tiny" xmlns="http://www.w3.org/2000/svg" xmlns:xlink="http://www.w3.org/1999/xlink" x="0px"
	 y="0px" viewBox="0 0 512 512" overflow="visible" xml:space="preserve">
<g id="Layer_4" display="none">
	
		<path display="inline" fill="none" stroke="#4A6FA5" stroke-width="10" stroke-linecap="round" stroke-linejoin="round" stroke-miterlimit="10" d="
		M167.8999786,172.3572845c-34.2859344,24.9101868-56.3707275,63.21698-60.7483826,105.3700104"/>
	
		<path display="inline" fill="none" stroke="#4A6FA5" stroke-width="10" stroke-linecap="round" stroke-linejoin="round" stroke-miterlimit="10" d="
		M107.169487,308.7444763c4.4267426,42.1524048,26.5598679,80.4370728,60.8802567,105.307373"/>
	
		<path display="inline" fill="none" stroke="#4A6FA5" stroke-width="10" stroke-linecap="round" stroke-linejoin="round" stroke-miterlimit="10" d="
		M316.3903503,156.7503204c-38.7177429-17.238266-82.9371948-17.2099609-121.6328583,0.0778503"/>
	
		<path display="inline" fill="none" stroke="#4A6FA5" stroke-width="10" stroke-linecap="round" stroke-linejoin="round" stroke-miterlimit="10" d="
		M194.9259186,429.5474548c38.7188568,17.2408142,82.9405975,17.213623,121.6381989-0.0747986"/>
	
		<path display="inline" fill="none" stroke="#4A6FA5" stroke-width="10" stroke-linecap="round" stroke-linejoin="round" stroke-miterlimit="10" d="
		M343.4169922,413.9471436c34.2908325-24.9114075,56.3782654-63.2227478,60.7545166-105.3806152"/>
	
		<path display="inline" fill="none" stroke="#4A6FA5" stroke-width="10" stroke-linecap="round" stroke-linejoin="round" stroke-miterlimit="10" d="
		M404.1521301,277.5484924c-4.428833-42.151886-26.5636292-80.4352112-60.8848877-105.3038025"/>
</g>
<g id="_x30_" display="none">
</g>
<g id="BrassTacks_v6_x5F_Sketch1">
	
		<circle fill="none" stroke="#4A6FA5" stroke-width="16" stroke-linecap="round" stroke-miterlimit="10" cx="255.6612091" cy="293.150238" r="184.4692078"/>
	<path fill="none" stroke="#4A6FA5" stroke-width="16" stroke-linecap="round" stroke-miterlimit="10" d="M255.4855194,16.2822189
		c148.3909149,85.5509872,239.8688507,243.7689514,239.9749908,415.0547485
		c-148.28479,85.7348022-331.0445557,85.8480835-479.4354553,0.2970886
		C15.9189129,260.3482666,107.2007294,102.0170288,255.4855194,16.2822189z"/>
	<g id="CIRCLE_00000170259295715722368830000011154416000657445252_" display="none">
		<path display="inline" fill="#4A6FA5" d="M255.6612091,246.1490479c25.9165497,0,47.0012054,21.0846558,47.0012054,47.0011902
			s-21.0846558,47.0011902-47.0012054,47.0011902s-47.0011902-21.0846558-47.0011902-47.0011902
			S229.7446747,246.1490479,255.6612091,246.1490479 M255.6612091,236.1490479
			c-31.4808807,0-57.0011902,25.5203247-57.0011902,57.0011902s25.5203094,57.0011902,57.0011902,57.0011902
			s57.0012054-25.5203247,57.0012054-57.0011902S287.1420898,236.1490479,255.6612091,236.1490479L255.6612091,236.1490479z"/>
	</g>
</g>
<g id="Layer_6">
	
		<path display="none" fill="none" stroke="#4A6FA5" stroke-width="10" stroke-linecap="round" stroke-linejoin="round" stroke-miterlimit="10" d="
		M415.4141235,293.0512695c-16.960144-29.3353882-47.8546143-46.0767822-79.8858643-46.0806885
		c15.9778442-27.7616577,16.8830566-62.888916-0.0783691-92.2235107
		c-33.8851929,0.0217896-63.8300781,18.4077759-79.8479004,46.1463623
		c-16.0528564-27.7185059-46.0216675-46.0662842-79.9071045-46.0437622
		c-16.9230347,29.3551025-15.9735107,64.4794312,0.0380859,92.2200317
		c-32.0284424,0.0435791-62.8997803,16.8201294-79.824707,46.1723633
		c16.9595337,29.3358154,47.8543091,46.0775146,79.8857422,46.0807495
		c-15.9810181,27.7614746-16.8885498,62.8904419,0.0723267,92.2269897
		c33.8851929-0.0202637,63.8309326-18.4048462,79.8499756-46.1427612
		c16.0534058,27.7180176,46.0218506,46.0655518,79.9071045,46.0437622
		c16.923645-29.3562012,15.9735107-64.4821777-0.039917-92.2233887
		C367.6147461,339.1852417,398.4890747,322.4067383,415.4141235,293.0512695z"/>
	<g>
		<path fill="#4A6FA5" d="M117.9296265,325.1843872c-7.1387329-5.2759399-13.5776978-11.5366211-19.0889282-18.6517944
			c4.0490112,47.8314819,29.588501,89.6287842,66.9046021,115.6801758
			c-3.401123-8.333374-5.5990601-17.0424805-6.5932007-25.8650513
			C139.0237427,377.5287476,124.3809204,352.913147,117.9296265,325.1843872z"/>
		<path fill="#4A6FA5" d="M393.2200928,325.1751099c-6.4161987,27.5863647-20.9390259,52.0931396-40.9059448,70.8757935
			c-0.9671631,8.8265381-3.1395874,17.5427246-6.5150757,25.8863525
			c37.0842896-26.0584717,62.4498901-67.7053833,66.5019531-115.3408203
			C406.7871094,313.6838379,400.3519897,319.9205933,393.2200928,325.1751099z"/>
		<path fill="#4A6FA5" d="M255.5737305,434.4589844c-14.2290039,0-27.9698486-2.1225586-40.932373-6.0529785
			c-8.1309814,3.5518188-16.765625,6.0061035-25.6775513,7.2320557
			c20.2391357,9.4995117,42.8131104,14.8209229,66.6099243,14.8209229c23.8806763,0,46.5301514-5.3585205,66.8241577-14.9212036
			c-8.8919678-1.2243042-17.5081787-3.6713867-25.623291-7.211853
			C283.7336426,432.3085938,269.9007568,434.4589844,255.5737305,434.4589844z"/>
		<path fill="#4A6FA5" d="M117.8902588,261.2772217c6.418457-27.7362061,21.0325317-52.3651123,41.1343384-71.2054443
			c0.9832764-8.8238525,3.1705322-17.5357666,6.5614624-25.873291
			c-37.2769775,26.0921021-62.7675781,67.9118652-66.7615356,115.7512817
			C104.3271484,272.8287964,110.7582397,266.5610962,117.8902588,261.2772217z"/>
		<path fill="#4A6FA5" d="M393.1767578,260.9484863c7.1394043,5.2462769,13.583252,11.4760132,19.1066895,18.5579224
			c-4.1112671-47.6204224-29.524231-89.237854-66.6430054-115.2529297
			c3.3861084,8.3399048,5.569519,17.0535889,6.5476074,25.8789673
			C372.1766357,208.8900757,386.7260742,233.3768311,393.1767578,260.9484863z"/>
		<path fill="#4A6FA5" d="M255.5737305,151.8417969c14.2650146,0,28.0396729,2.1328125,41.0310059,6.0823975
			c8.1102905-3.5510864,16.7229004-6.0094604,25.6123047-7.2457886
			c-20.2477417-9.5093994-42.8334961-14.8366089-66.6433105-14.8366089c-23.8656006,0-46.5015869,5.3518066-66.7856445,14.9030762
			c8.9124756,1.2148438,17.5495605,3.6586914,25.6844482,7.2002563
			C227.484375,153.9818726,241.2830811,151.8417969,255.5737305,151.8417969z"/>
	</g>
</g>
<g id="Layer_5">
	<path fill="none" stroke="#4A6FA5" stroke-width="16" stroke-linecap="round" stroke-miterlimit="10" d="M213.2789154,255.0335846
		c8.0484314-8.9491272,18.7230682-15.1209412,30.4943542-17.6311188
		c4.9029236-46.9532776,44.4680328-82.6250763,91.67659-82.6553802
		c23.6305237,40.8686523,12.5873108,92.9831696-25.5883179,120.7549286
		c3.7270203,11.4461975,3.7346497,23.7784729,0.0218201,35.2292786
		c38.2087402,27.7235107,49.3172607,79.8219604,25.7400208,120.7195435
		c-47.2088928,0.030304-86.8199615-35.591156-91.7827606-82.5385132
		c-11.7758331-2.4962463-22.4591064-8.6564331-30.5186768-17.5976257
		c-43.1139374,19.227478-93.7866287,2.7963257-117.4136658-38.0726318
		C119.4891891,252.3465881,170.1423645,235.8571014,213.2789154,255.0335846z"/>
</g>
<g id="Layer_3">
	<g>
		<path fill="none" stroke="#4A6FA5" stroke-width="16" stroke-linecap="round" stroke-miterlimit="10" d="M175.866333,431.5498352
			c-23.6286926-40.8697205-12.5831451-92.9837341,25.5937347-120.7537842
			c-3.7259521-11.4447021-3.7335968-23.775116-0.0218201-35.2244263
			c-38.2112579-27.7227173-49.3213959-79.8230133-25.7433624-120.7219696
			c47.2086487-0.0313721,86.8197632,35.5901489,91.7814636,82.5373383
			c11.775238,2.4949493,22.4584351,8.6533813,30.5186768,17.5927887
			c43.1152039-19.2292023,93.7902222-2.7985382,117.4190979,38.0714874
			c-23.579071,40.8965149-74.2315063,57.3882751-117.368927,38.2137146
			c-8.0491943,8.9508057-18.7254639,15.1235657-30.4985657,17.6335754
			C262.6416016,395.851593,223.0748901,431.521637,175.866333,431.5498352z"/>
	</g>
</g>
</svg>
